<?xml version="1.0" standalone="no"?><svg xmlns="http://www.w3.org/2000/svg" viewBox="0 0 1440 320"><path fill="#202020" fill-opacity="1" d="M0,96L40,106.7C80,117,160,139,240,133.3C320,128,400,96,480,96C560,96,640,128,720,154.7C800,181,880,203,960,192C1040,181,1120,139,1200,122.7C1280,107,1360,117,1400,122.7L1440,128L1440,320L1400,320C1360,320,1280,320,1200,320C1120,320,1040,320,960,320C880,320,800,320,720,320C640,320,560,320,480,320C400,320,320,320,240,320C160,320,80,320,40,320L0,320Z"></path></svg>