<?xml version="1.0" standalone="no"?><svg xmlns="http://www.w3.org/2000/svg" viewBox="0 0 1440 320"><path fill="#111111" fill-opacity="1" d="M0,192L40,186.7C80,181,160,171,240,181.3C320,192,400,224,480,229.3C560,235,640,213,720,192C800,171,880,149,960,160C1040,171,1120,213,1200,213.3C1280,213,1360,171,1400,149.3L1440,128L1440,320L1400,320C1360,320,1280,320,1200,320C1120,320,1040,320,960,320C880,320,800,320,720,320C640,320,560,320,480,320C400,320,320,320,240,320C160,320,80,320,40,320L0,320Z"></path></svg>